<svg width="23" height="21" viewBox="0 0 23 21" fill="none" xmlns="http://www.w3.org/2000/svg">
<path fill-rule="evenodd" clip-rule="evenodd" d="M19.8275 16.9504C22.5042 14.308 21.0291 8.41941 17.7055 7.68073C14.174 6.89582 11.274 7.9324 9.72258 9.32166C8.17118 10.7109 9.71605 17.4181 13.3681 18.6206L13.3743 18.6194C13.1652 18.323 13.0149 17.986 12.9391 17.6172C12.9034 17.4437 12.8857 17.27 12.8847 17.0979C11.8275 16.5967 10.9839 15.548 10.7103 14.2173C10.2743 12.0959 11.4524 10.0613 13.3418 9.67294C13.8932 9.55961 14.4442 9.59899 14.9589 9.76432C15.3667 9.40936 15.8575 9.15583 16.4089 9.04249C18.2982 8.65412 20.1834 10.059 20.6195 12.1805C20.9044 13.5666 20.5002 14.9156 19.6587 15.7926C19.7103 15.9268 19.7514 16.0664 19.7811 16.2108C19.8321 16.4587 19.8464 16.7067 19.8275 16.9504Z" fill="white"/>
<mask id="path-2-inside-1" fill="white">
<path fill-rule="evenodd" clip-rule="evenodd" d="M19.6661 15.7898C20.5096 14.9107 20.9148 13.5585 20.6292 12.169C20.1921 10.0425 18.3024 8.63427 16.4085 9.02357C15.8558 9.13718 15.3638 9.39131 14.9551 9.74713C14.4391 9.5814 13.8868 9.54193 13.3341 9.65553C11.4402 10.0448 10.2593 12.0843 10.6964 14.2108C10.9705 15.5446 11.8162 16.5959 12.876 17.0982C12.8769 17.2708 12.8946 17.4448 12.9304 17.6188C13.2675 19.2587 15.0761 20.2725 16.97 19.8832C18.8639 19.4939 20.1259 17.8489 19.7888 16.209C19.7591 16.0642 19.7178 15.9243 19.6661 15.7898Z"/>
</mask>
<path d="M19.6661 15.7898L19.3053 15.4437C19.1711 15.5836 19.1298 15.7884 19.1994 15.9694L19.6661 15.7898ZM14.9551 9.74713L14.8022 10.2232C14.9688 10.2767 15.1513 10.2392 15.2834 10.1243L14.9551 9.74713ZM12.876 17.0982L13.376 17.0955C13.3749 16.9033 13.2638 16.7287 13.0901 16.6464L12.876 17.0982ZM20.0269 16.136C20.9907 15.1315 21.4357 13.6096 21.1189 12.0684L20.1394 12.2697C20.3938 13.5074 20.0285 14.69 19.3053 15.4437L20.0269 16.136ZM21.1189 12.0684C20.6375 9.72626 18.524 8.07827 16.3078 8.53381L16.5092 9.51333C18.0808 9.19028 19.7466 10.3588 20.1394 12.2697L21.1189 12.0684ZM16.3078 8.53381C15.6667 8.6656 15.0972 8.96051 14.6268 9.36999L15.2834 10.1243C15.6305 9.82211 16.0449 9.60876 16.5092 9.51333L16.3078 8.53381ZM15.108 9.27108C14.5142 9.08036 13.8746 9.03399 13.2335 9.16577L13.4348 10.1453C13.899 10.0499 14.364 10.0824 14.8022 10.2232L15.108 9.27108ZM13.2335 9.16577C11.0173 9.62132 9.72518 11.9693 10.2066 14.3114L11.1861 14.1101C10.7933 12.1992 11.8632 10.4683 13.4348 10.1453L13.2335 9.16577ZM10.2066 14.3114C10.5108 15.7914 11.4532 16.9771 12.6618 17.55L13.0901 16.6464C12.1793 16.2146 11.4303 15.2978 11.1861 14.1101L10.2066 14.3114ZM13.4202 17.5181C13.3911 17.3767 13.3767 17.2355 13.376 17.0955L12.376 17.1009C12.3771 17.3061 12.3982 17.5129 12.4406 17.7195L13.4202 17.5181ZM16.8693 19.3934C15.1773 19.7412 13.6885 18.8237 13.4202 17.5181L12.4406 17.7195C12.8464 19.6937 14.9748 20.8037 17.0706 20.3729L16.8693 19.3934ZM19.2991 16.3097C19.5674 17.6152 18.5613 19.0456 16.8693 19.3934L17.0706 20.3729C19.1664 19.9421 20.6844 18.0826 20.2786 16.1084L19.2991 16.3097ZM19.1994 15.9694C19.2414 16.0784 19.2749 16.192 19.2991 16.3097L20.2786 16.1084C20.2433 15.9365 20.1943 15.7702 20.1327 15.6103L19.1994 15.9694Z" fill="white" mask="url(#path-2-inside-1)"/>
<path fill-rule="evenodd" clip-rule="evenodd" d="M10.4593 13.2781C9.39616 13.3389 7.39264 12.3382 6.68353 11.8352C6.58512 11.7778 8.12743 11.0994 8.12743 11.0994L8.04403 11.1133C7.99782 11.1225 7.93601 11.135 7.86287 11.1498C7.32402 11.2588 6.16984 11.4924 6.09925 11.4382C4.91581 10.5291 3.8026 9.08755 3.52688 8.7305C3.4948 8.68896 3.47406 8.6621 3.46586 8.65246C3.11562 8.24086 2.7669 7.73034 2.43402 7.17412C2.38786 7.09697 4.16385 6.91592 4.16385 6.91592C4.18577 6.91367 4.02873 6.89963 3.7936 6.8786C3.21925 6.82723 2.17897 6.7342 2.14302 6.66964C0.973176 4.569 0.0681562 2.07333 0.114047 1.72771C1.49633 1.37215 3.57738 2.92786 3.87433 3.17134C4.965 4.0656 6.08936 5.26477 7.01366 6.33013C7.11619 6.44831 6.7112 7.98537 6.7112 7.98537C6.70829 7.99305 6.74417 7.94412 6.80282 7.86415C7.01091 7.5804 7.50558 6.90587 7.5705 6.98331C8.06389 7.57183 8.46899 8.08018 8.7366 8.41599C8.87211 8.58603 8.97236 8.71183 9.03097 8.7814C10.2698 10.252 10.8222 12.9061 10.7356 13.0561L10.7075 13.0924C8.59441 10.3557 4.46812 5.73258 4.42187 5.74209C4.3309 5.76079 8.25955 10.665 10.5008 13.2489L10.4593 13.2781Z" fill="white"/>
<ellipse cx="16.1067" cy="15.0494" rx="0.14205" ry="0.419972" transform="rotate(-11.6156 16.1067 15.0494)" fill="white"/>
<ellipse cx="15.5938" cy="15.1548" rx="0.14205" ry="0.419972" transform="rotate(-11.6156 15.5938 15.1548)" fill="white"/>
<path d="M14.5694 17.2999C14.6154 17.434 14.6632 17.5374 14.7656 17.6397C14.8421 17.716 14.9302 17.7737 15.02 17.8325C15.1159 17.8953 15.2121 17.9554 15.3225 17.9894C15.4682 18.0343 15.6015 18.0599 15.7541 18.0609C15.8228 18.0613 15.8911 18.0414 15.9581 18.0276" stroke="white" stroke-width="0.5" stroke-linecap="round" stroke-linejoin="round"/>
<path d="M13.6226 12.403L13.7464 12.3775C14.1938 12.2856 14.631 12.5737 14.723 13.0211L14.9271 14.0141C14.9734 14.2395 14.7455 14.4303 14.5272 14.3394C14.2334 14.217 13.8923 14.2865 13.671 14.5173C13.5132 14.6818 13.2356 14.6017 13.1897 14.3784L12.9831 13.3734C12.8917 12.9288 13.1781 12.4944 13.6226 12.403Z" stroke="white" stroke-width="0.5" stroke-linejoin="round"/>
<path d="M17.1828 11.6712L17.3065 11.6457C17.7539 11.5538 18.1911 11.8419 18.2831 12.2893L18.4872 13.2823C18.5336 13.5077 18.3056 13.6985 18.0873 13.6076C17.7935 13.4852 17.4525 13.5547 17.2311 13.7855C17.0733 13.95 16.7957 13.8699 16.7498 13.6466L16.5432 12.6416C16.4519 12.197 16.7382 11.7626 17.1828 11.6712Z" stroke="white" stroke-width="0.5" stroke-linejoin="round"/>
</svg>
