<svg width="25" height="25" viewBox="0 0 25 25" fill="none" xmlns="http://www.w3.org/2000/svg">
<path d="M14.0941 2.10899H6.09409C5.56365 2.10899 5.05494 2.31971 4.67987 2.69478C4.3048 3.06985 4.09409 3.57856 4.09409 4.10899V20.109C4.09409 20.6394 4.3048 21.1481 4.67987 21.5232C5.05494 21.8983 5.56365 22.109 6.09409 22.109H18.0941C18.6245 22.109 19.1332 21.8983 19.5083 21.5232C19.8834 21.1481 20.0941 20.6394 20.0941 20.109V8.10899L14.0941 2.10899Z" stroke="white" stroke-width="2" stroke-linecap="round" stroke-linejoin="round"/>
<path d="M14.0941 2.10899V8.10899H20.0941" stroke="white" stroke-width="2" stroke-linecap="round" stroke-linejoin="round"/>
<path d="M16.0941 13.109H8.09409" stroke="white" stroke-width="2" stroke-linecap="round" stroke-linejoin="round"/>
<path d="M16.0941 17.109H8.09409" stroke="white" stroke-width="2" stroke-linecap="round" stroke-linejoin="round"/>
<path d="M10.0941 9.10899H9.09409H8.09409" stroke="white" stroke-width="2" stroke-linecap="round" stroke-linejoin="round"/>
</svg>
