<svg width="508" height="88" viewBox="0 0 508 88" fill="none" xmlns="http://www.w3.org/2000/svg">
<path d="M74.7462 26.6667C74.7462 31.7037 72.9833 36.0593 69.4575 39.7334C65.9318 43.3482 60.7901 45.9556 54.0324 47.5556C57.6757 48.563 60.4375 50.2223 62.3179 52.5334C64.1983 54.7852 65.1385 57.3926 65.1385 60.3556C65.1385 65.0371 63.6694 69.0963 60.7313 72.5333C57.852 75.9704 53.6211 78.637 48.0386 80.5333C42.4562 82.3704 35.7279 83.2889 27.8538 83.2889C24.9156 83.2889 22.5651 83.2 20.8019 83.0222C20.7431 84.6815 20.038 85.9259 18.6865 86.7556C17.3349 87.5852 15.6014 88 13.486 88C11.3705 88 9.90147 87.5259 9.07879 86.5778C8.31488 85.6296 7.99169 84.237 8.10921 82.4C8.63808 74.1037 9.66642 65.4223 11.1942 56.3556C12.7221 47.2297 14.6612 38.4297 17.0117 29.9556C17.4231 28.4741 18.2457 27.4371 19.4797 26.8445C20.7138 26.2519 22.3301 25.9556 24.328 25.9556C27.9125 25.9556 29.7048 26.963 29.7048 28.9778C29.7048 29.8074 29.5285 30.7556 29.1759 31.8222C27.6481 36.4445 26.1203 42.726 24.5924 50.6667C23.0646 58.5482 21.9775 66.0741 21.3311 73.2444C24.1517 73.4815 26.4435 73.6 28.2063 73.6C36.4331 73.6 42.4562 72.4148 46.2758 70.0444C50.1541 67.6149 52.0933 64.5334 52.0933 60.8001C52.0933 58.1926 50.9768 56 48.7438 54.2223C46.5696 52.4445 42.8969 51.4667 37.7258 51.2889C36.5506 51.2297 35.7279 50.9334 35.2578 50.4C34.7877 49.8667 34.5527 49.0074 34.5527 47.8223C34.5527 46.1037 34.9052 44.7111 35.6104 43.6445C36.3155 42.5778 37.6083 42.0148 39.4887 41.9556C43.6608 41.8371 47.4216 41.2148 50.7711 40.0889C54.1793 38.963 56.853 37.3926 58.7922 35.3778C60.7313 33.3037 61.7009 30.9037 61.7009 28.1778C61.7009 24.7408 60.0262 22.0445 56.6767 20.0889C53.3273 18.0741 48.1855 17.0667 41.2516 17.0667C34.964 17.0667 28.8821 17.8963 23.0059 19.5556C17.1292 21.1556 12.1344 23.2 8.02107 25.6889C6.14067 26.8148 4.55409 27.3778 3.26132 27.3778C2.20359 27.3778 1.38092 27.0222 0.793295 26.3111C0.264433 25.5408 0 24.5926 0 23.4667C0 21.9852 0.293815 20.7111 0.881439 19.6445C1.52783 18.5778 3.02627 17.363 5.37676 16C10.3128 13.1556 16.1009 10.9333 22.7414 9.33334C29.3816 7.73333 36.1686 6.93333 43.1026 6.93333C53.7386 6.93333 61.6715 8.74074 66.9014 12.3556C72.1312 15.9704 74.7462 20.7408 74.7462 26.6667ZM82.6886 84C79.0454 84 76.1366 82.6667 73.9624 80C71.7882 77.3333 70.7011 73.837 70.7011 69.5111C70.7011 64.7704 71.7882 60.2964 73.9624 56.0889C76.1366 51.8223 79.016 48.4149 82.6005 45.8667C86.2438 43.2593 90.0927 41.9556 94.1473 41.9556C95.4401 41.9556 96.2921 42.2223 96.7035 42.7556C97.1736 43.2297 97.5555 44.1186 97.8493 45.4223C99.0834 45.1852 100.376 45.0667 101.728 45.0667C104.607 45.0667 106.047 46.1037 106.047 48.1778C106.047 49.4223 105.606 52.3852 104.725 57.0667C103.373 63.8815 102.697 68.6223 102.697 71.2889C102.697 72.1778 102.903 72.8889 103.314 73.4222C103.784 73.9555 104.372 74.2222 105.077 74.2222C106.194 74.2222 107.545 73.5111 109.132 72.0889C110.718 70.6074 112.863 68.2371 115.566 64.9778C116.271 64.1482 117.065 63.7334 117.946 63.7334C118.71 63.7334 119.298 64.0889 119.709 64.8001C120.179 65.5112 120.414 66.4889 120.414 67.7334C120.414 70.1037 119.856 71.9407 118.739 73.2444C116.33 76.2667 113.774 78.8148 111.071 80.8889C108.368 82.963 105.753 84 103.226 84C101.287 84 99.4947 83.3481 97.8493 82.0444C96.2628 80.6815 95.0581 78.8444 94.2355 76.5333C91.1798 81.5111 87.3309 84 82.6886 84ZM85.8618 75.0222C87.1546 75.0222 88.3886 74.2518 89.5638 72.7111C90.7391 71.1704 91.5911 69.1259 92.12 66.5778L95.3813 50.2223C92.9133 50.2815 90.6216 51.2297 88.5061 53.0667C86.4494 54.8445 84.8041 57.2149 83.5701 60.1778C82.3361 63.1408 81.7191 66.2815 81.7191 69.6C81.7191 71.437 82.0716 72.8 82.7768 73.6889C83.5407 74.5778 84.569 75.0222 85.8618 75.0222ZM129.645 85.9556C126.589 85.9556 124.239 85.2444 122.593 83.8222C121.007 82.4 120.214 80.8 120.214 79.0222C120.214 77.4815 120.772 76.1481 121.888 75.0222C123.005 73.8963 124.65 73.3333 126.824 73.3333C127.588 73.3333 128.47 73.4222 129.469 73.6C130.526 73.7185 131.32 73.8074 131.849 73.8667C131.79 72.3259 131.437 70.8741 130.791 69.5111C130.203 68.1482 129.439 66.8445 128.499 65.6001C127.559 64.2963 126.677 63.1704 125.855 62.2223C124.033 65.7186 122.211 68.6223 120.39 70.9333C118.627 73.2444 116.688 75.437 114.572 77.5111C113.515 78.5778 112.398 79.1111 111.223 79.1111C110.283 79.1111 109.519 78.7852 108.931 78.1333C108.344 77.4222 108.05 76.563 108.05 75.5555C108.05 74.3704 108.461 73.2741 109.284 72.2667L110.43 70.8444C113.662 66.8149 116.1 63.4964 117.746 60.8889C118.745 59.1704 119.92 56.8889 121.271 54.0445C122.623 51.1408 123.945 48.1482 125.238 45.0667C126.354 42.4593 128.675 41.1556 132.201 41.1556C133.846 41.1556 134.992 41.3037 135.639 41.6C136.285 41.8963 136.608 42.3704 136.608 43.0223C136.608 43.3778 136.491 43.9408 136.256 44.7111C136.021 45.4815 135.697 46.2519 135.286 47.0223C134.228 49.1556 133.7 50.963 133.7 52.4445C133.7 53.3334 133.993 54.3112 134.581 55.3778C135.227 56.4445 136.197 57.7778 137.49 59.3778C139.37 61.8667 140.78 64.0001 141.721 65.7778C142.72 67.4964 143.219 69.3926 143.219 71.4667C143.219 72.0592 143.16 72.8889 143.043 73.9555C145.922 72.8296 149.301 69.837 153.179 64.9778C153.884 64.1482 154.678 63.7334 155.559 63.7334C156.323 63.7334 156.911 64.0889 157.322 64.8001C157.792 65.5112 158.027 66.4889 158.027 67.7334C158.027 69.9852 157.469 71.8222 156.352 73.2444C153.414 76.9185 150.594 79.437 147.891 80.8C145.246 82.1037 141.956 82.8148 138.019 82.9333C135.668 84.9481 132.877 85.9556 129.645 85.9556ZM182.069 42.1334C183.95 42.1334 185.36 42.6371 186.3 43.6445C187.299 44.5926 187.798 46.0149 187.798 47.9111C187.798 49.4519 187.475 52.3556 186.829 56.6223C186.241 60.2371 185.771 63.6741 185.419 66.9334C185.066 70.1333 184.89 73.7185 184.89 77.6889C184.89 79.9407 184.42 81.5704 183.479 82.5778C182.598 83.5259 181.129 84 179.072 84C177.133 84 175.723 83.4963 174.841 82.4889C173.96 81.4815 173.519 79.9704 173.519 77.9555C173.519 75.5852 173.931 71.6741 174.753 66.2223C175.458 61.4815 175.811 58.4593 175.811 57.1556C175.811 56.2075 175.488 55.7334 174.841 55.7334C174.077 55.7334 172.99 56.7408 171.58 58.7556C170.17 60.7112 168.759 63.3186 167.349 66.5778C165.939 69.837 164.793 73.2741 163.912 76.8889C163.265 79.6741 162.501 81.5704 161.62 82.5778C160.797 83.5259 159.475 84 157.653 84C155.832 84 154.48 83.3481 153.599 82.0444C152.776 80.6815 152.218 78.6074 151.924 75.8222C151.63 73.037 151.483 68.9482 151.483 63.5556C151.483 54.4297 152.394 44.9186 154.216 35.0222C156.096 25.1259 158.829 16.8296 162.413 10.1333C166.056 3.37777 170.405 0 175.458 0C178.161 0 180.336 1.18519 181.981 3.55555C183.685 5.86666 184.537 8.88889 184.537 12.6222C184.537 18.6074 182.804 24.8296 179.337 31.2889C175.87 37.6889 170.228 45.1852 162.413 53.7778C162.237 56.8593 162.149 60.0297 162.149 63.2889C164.088 58.2519 166.233 54.163 168.583 51.0223C170.992 47.8223 173.343 45.5408 175.635 44.1778C177.985 42.8149 180.13 42.1334 182.069 42.1334ZM173.607 8.8C172.55 8.8 171.374 10.3407 170.082 13.4222C168.789 16.4445 167.525 20.563 166.291 25.7778C165.116 30.9334 164.147 36.563 163.383 42.6667C167.026 38.3408 170.023 33.6297 172.373 28.5334C174.783 23.4371 175.987 18.8148 175.987 14.6667C175.987 12.7704 175.782 11.3185 175.37 10.3111C174.959 9.3037 174.371 8.8 173.607 8.8ZM233.623 84C231.449 84 229.891 83.5259 228.951 82.5778C228.011 81.5704 227.541 79.7037 227.541 76.9778C227.541 75.1407 227.717 72.8 228.07 69.9555C228.481 67.0519 229.128 63.0815 230.009 58.0445C231.537 48.7408 232.741 40.6815 233.623 33.8667C234.152 29.6 234.416 26.0445 234.416 23.2C234.416 20.5333 233.447 19.2 231.507 19.2C229.98 19.2 228.129 20 225.954 21.6C223.839 23.1408 221.488 25.6296 218.903 29.0667C218.08 30.1926 217.169 30.7556 216.17 30.7556C215.348 30.7556 214.613 30.3704 213.967 29.6C213.379 28.7704 213.085 27.8519 213.085 26.8445C213.085 25.8963 213.262 24.9482 213.614 24C214.026 22.9926 214.672 21.8667 215.553 20.6222C218.374 16.6519 221.518 13.6 224.985 11.4667C228.452 9.27408 231.919 8.17778 235.386 8.17778C238.618 8.17778 241.086 9.21482 242.79 11.2889C244.553 13.363 245.434 16.3852 245.434 20.3556C245.434 21.9556 245.287 23.8519 244.993 26.0445C244.7 28.1778 244.435 29.9259 244.2 31.2889C243.965 32.6519 243.789 33.6 243.671 34.1334C247.021 24.4741 250.781 17.7482 254.954 13.9556C259.126 10.1037 263.709 8.17778 268.704 8.17778C272.524 8.17778 275.52 9.54074 277.695 12.2667C279.928 14.9926 281.044 18.8445 281.044 23.8222C281.044 25.7778 280.78 28.2074 280.251 31.1111C283.189 22.9334 286.627 17.0667 290.564 13.5111C294.501 9.95556 299.025 8.17778 304.138 8.17778C308.251 8.17778 311.395 9.51111 313.569 12.1778C315.802 14.8445 316.919 18.5778 316.919 23.3778C316.919 25.9852 316.537 29.1556 315.773 32.8889L310.396 58.3112C309.808 61.2741 309.515 63.8223 309.515 65.9556C309.515 68.4445 310.073 70.3111 311.189 71.5555C312.364 72.8 313.98 73.4222 316.037 73.4222C317.976 73.4222 319.857 72.7704 321.678 71.4667C323.559 70.163 325.762 68.0001 328.289 64.9778C328.994 64.1482 329.788 63.7334 330.669 63.7334C331.433 63.7334 332.021 64.0889 332.432 64.8001C332.902 65.5112 333.137 66.4889 333.137 67.7334C333.137 70.0444 332.579 71.8815 331.462 73.2444C328.407 76.9778 325.38 79.7037 322.383 81.4222C319.387 83.1407 316.243 84 312.952 84C307.957 84 304.05 82.5185 301.229 79.5556C298.408 76.5333 296.998 72.5037 296.998 67.4667C296.998 63.9704 297.703 58.9038 299.114 52.2667L302.639 36C302.757 35.4667 302.963 34.5185 303.256 33.1556C303.55 31.7926 303.785 30.5185 303.961 29.3334C304.138 28.0889 304.226 26.8741 304.226 25.6889C304.226 23.6148 303.815 22.0741 302.992 21.0667C302.228 20 301.111 19.4667 299.642 19.4667C296.881 19.4667 293.972 21.2741 290.916 24.8889C287.919 28.4445 285.04 34.3704 282.278 42.6667C279.575 50.963 277.371 61.7482 275.667 75.0222C275.256 78.5778 274.521 80.9778 273.464 82.2222C272.465 83.4074 270.819 84 268.528 84C266.53 84 265.061 83.5259 264.121 82.5778C263.239 81.6296 262.798 79.8518 262.798 77.2444C262.798 74.8148 263.122 71.6444 263.768 67.7334C264.414 63.763 265.237 59.1112 266.236 53.7778C268.939 39.4371 270.291 30.1926 270.291 26.0445C270.291 23.7926 269.85 22.1333 268.968 21.0667C268.146 20 266.882 19.4667 265.178 19.4667C262.299 19.4667 259.331 21.1259 256.276 24.4445C253.22 27.7037 250.223 33.5408 247.285 41.9556C244.406 50.3112 241.996 61.6297 240.057 75.9111C239.646 78.9333 239.029 81.037 238.206 82.2222C237.442 83.4074 235.915 84 233.623 84ZM337.581 36.2667C335.113 36.2667 333.262 35.7037 332.028 34.5778C330.794 33.3926 330.177 31.763 330.177 29.6889C330.177 27.6148 330.97 25.8963 332.557 24.5334C334.202 23.1111 336.229 22.4 338.639 22.4C340.813 22.4 342.576 22.9333 343.927 24C345.279 25.0667 345.955 26.5778 345.955 28.5334C345.955 30.9037 345.191 32.8 343.663 34.2222C342.135 35.5852 340.108 36.2667 337.581 36.2667ZM336.876 84C333.056 84 330.265 82.637 328.502 79.9111C326.798 77.1852 325.946 73.5704 325.946 69.0667C325.946 66.4001 326.269 62.9926 326.916 58.8445C327.621 54.6371 328.502 50.726 329.56 47.1111C330.089 45.2149 330.794 43.9111 331.675 43.2C332.557 42.4889 333.967 42.1334 335.906 42.1334C338.903 42.1334 340.402 43.1408 340.402 45.1556C340.402 46.6371 339.843 50.0741 338.727 55.4667C337.316 61.9852 336.611 66.4001 336.611 68.7112C336.611 70.4889 336.846 71.8518 337.316 72.8C337.787 73.7481 338.58 74.2222 339.696 74.2222C340.754 74.2222 342.076 73.4815 343.663 72C345.249 70.5185 347.365 68.1778 350.009 64.9778C350.714 64.1482 351.508 63.7334 352.389 63.7334C353.153 63.7334 353.741 64.0889 354.152 64.8001C354.622 65.5112 354.857 66.4889 354.857 67.7334C354.857 70.1037 354.299 71.9407 353.182 73.2444C347.365 80.4148 341.929 84 336.876 84ZM353.984 84C351.751 84 350.165 82.8148 349.225 80.4444C348.343 78.0741 347.903 74.2815 347.903 69.0667C347.903 61.363 348.99 54.0445 351.164 47.1111C351.693 45.3926 352.545 44.1482 353.72 43.3778C354.954 42.5482 356.658 42.1334 358.832 42.1334C360.008 42.1334 360.83 42.2815 361.3 42.5778C361.77 42.8741 362.006 43.4371 362.006 44.2667C362.006 45.2148 361.565 47.3482 360.683 50.6667C360.096 53.0371 359.626 55.1112 359.273 56.8889C358.92 58.6667 358.627 60.8593 358.392 63.4667C360.331 58.3704 362.505 54.2223 364.914 51.0223C367.324 47.8223 369.674 45.5408 371.966 44.1778C374.316 42.8149 376.461 42.1334 378.4 42.1334C382.22 42.1334 384.13 44.0593 384.13 47.9111C384.13 48.6815 383.865 50.5482 383.336 53.5112C382.866 55.8815 382.631 57.363 382.631 57.9556C382.631 60.0297 383.366 61.0667 384.835 61.0667C386.48 61.0667 388.596 59.763 391.181 57.1556C391.945 56.3852 392.738 56 393.561 56C394.325 56 394.912 56.3556 395.324 57.0667C395.794 57.7186 396.029 58.6075 396.029 59.7334C396.029 61.926 395.441 63.6445 394.266 64.8889C392.621 66.6075 390.682 68.0889 388.449 69.3333C386.274 70.5185 383.953 71.1111 381.485 71.1111C378.371 71.1111 375.991 70.3111 374.346 68.7112C372.759 67.1112 371.966 64.9482 371.966 62.2223C371.966 61.3334 372.054 60.4445 372.23 59.5556C372.348 58.3704 372.406 57.5704 372.406 57.1556C372.406 56.2075 372.083 55.7334 371.437 55.7334C370.555 55.7334 369.38 56.7408 367.911 58.7556C366.501 60.7112 365.091 63.3186 363.68 66.5778C362.27 69.837 361.124 73.2741 360.243 76.8889C359.596 79.6741 358.832 81.5704 357.951 82.5778C357.128 83.5259 355.806 84 353.984 84ZM394.096 84C391.863 84 390.277 82.8148 389.337 80.4444C388.455 78.0741 388.014 74.2815 388.014 69.0667C388.014 61.363 389.102 54.0445 391.276 47.1111C391.805 45.3926 392.657 44.1482 393.832 43.3778C395.066 42.5482 396.77 42.1334 398.944 42.1334C400.12 42.1334 400.942 42.2815 401.412 42.5778C401.882 42.8741 402.117 43.4371 402.117 44.2667C402.117 45.2148 401.677 47.3482 400.795 50.6667C400.208 53.0371 399.738 55.1112 399.385 56.8889C399.032 58.6667 398.739 60.8593 398.504 63.4667C400.443 58.3704 402.617 54.2223 405.026 51.0223C407.435 47.8223 409.786 45.5408 412.078 44.1778C414.428 42.8149 416.573 42.1334 418.512 42.1334C422.332 42.1334 424.242 44.0593 424.242 47.9111C424.242 48.6815 423.977 50.5482 423.448 53.5112C422.978 55.8815 422.743 57.363 422.743 57.9556C422.743 60.0297 423.478 61.0667 424.947 61.0667C426.592 61.0667 428.707 59.763 431.293 57.1556C432.057 56.3852 432.85 56 433.673 56C434.437 56 435.024 56.3556 435.436 57.0667C435.906 57.7186 436.141 58.6075 436.141 59.7334C436.141 61.926 435.553 63.6445 434.378 64.8889C432.733 66.6075 430.794 68.0889 428.561 69.3333C426.386 70.5185 424.065 71.1111 421.597 71.1111C418.483 71.1111 416.103 70.3111 414.458 68.7112C412.871 67.1112 412.078 64.9482 412.078 62.2223C412.078 61.3334 412.166 60.4445 412.342 59.5556C412.46 58.3704 412.518 57.5704 412.518 57.1556C412.518 56.2075 412.195 55.7334 411.549 55.7334C410.667 55.7334 409.492 56.7408 408.023 58.7556C406.613 60.7112 405.202 63.3186 403.792 66.5778C402.382 69.837 401.236 73.2741 400.355 76.8889C399.708 79.6741 398.944 81.5704 398.063 82.5778C397.24 83.5259 395.918 84 394.096 84ZM472.903 56.2667C473.667 56.2667 474.255 56.6519 474.666 57.4223C475.078 58.1926 475.283 59.1704 475.283 60.3556C475.283 63.2001 474.431 64.8889 472.727 65.4223C469.201 66.6667 465.323 67.3778 461.092 67.5556C459.976 72.5333 457.772 76.5333 454.481 79.5556C451.191 82.5185 447.459 84 443.287 84C439.761 84 436.735 83.1407 434.208 81.4222C431.74 79.7037 429.86 77.4222 428.567 74.5778C427.274 71.7333 426.628 68.6519 426.628 65.3334C426.628 60.8297 427.48 56.8297 429.184 53.3334C430.888 49.7778 433.239 47.0223 436.236 45.0667C439.233 43.0519 442.553 42.0445 446.196 42.0445C450.662 42.0445 454.246 43.6149 456.949 46.7556C459.711 49.8371 461.327 53.6593 461.797 58.2223C464.559 58.0445 467.85 57.4519 471.669 56.4445C472.14 56.326 472.551 56.2667 472.903 56.2667ZM443.992 74.5778C445.873 74.5778 447.489 73.8074 448.84 72.2667C450.25 70.7259 451.191 68.5038 451.661 65.6001C449.839 64.3556 448.429 62.726 447.43 60.7112C446.49 58.6963 446.02 56.563 446.02 54.3112C446.02 53.363 446.108 52.4149 446.284 51.4667H445.843C443.493 51.4667 441.524 52.6223 439.938 54.9334C438.41 57.1852 437.646 60.3852 437.646 64.5334C437.646 67.7926 438.263 70.2815 439.497 72C440.79 73.7185 442.288 74.5778 443.992 74.5778ZM503.328 54.3112C504.621 54.3112 505.708 54.7852 506.59 55.7334C507.53 56.6223 508 57.7482 508 59.1112C508 59.8815 507.824 60.7112 507.471 61.6001C506.531 63.7926 505.209 65.6297 503.505 67.1112C501.801 68.5927 499.92 69.3333 497.864 69.3333C496.218 69.3333 494.808 68.7408 493.633 67.5556C492.516 66.3704 491.958 64.7704 491.958 62.7556C491.958 61.6297 492.017 60.4149 492.134 59.1112C492.252 58.163 492.31 57.5112 492.31 57.1556C492.31 56.6815 492.193 56.326 491.958 56.0889C491.782 55.8519 491.547 55.7334 491.253 55.7334C490.43 55.7334 489.314 56.7408 487.903 58.7556C486.493 60.7112 485.083 63.3186 483.672 66.5778C482.262 69.837 481.116 73.2741 480.235 76.8889C479.588 79.7333 478.854 81.6296 478.031 82.5778C477.208 83.5259 475.857 84 473.977 84C471.744 84 470.157 82.8148 469.217 80.4444C468.335 78.0741 467.895 74.2815 467.895 69.0667C467.895 61.363 468.982 54.0445 471.156 47.1111C471.685 45.3926 472.537 44.1482 473.712 43.3778C474.946 42.5482 476.65 42.1334 478.824 42.1334C480 42.1334 480.822 42.2815 481.292 42.5778C481.763 42.8741 481.998 43.4371 481.998 44.2667C481.998 45.2148 481.557 47.3482 480.675 50.6667C480.088 53.0371 479.618 55.1112 479.265 56.8889C478.913 58.6667 478.619 60.8593 478.384 63.4667C480.323 58.3704 482.497 54.2223 484.906 51.0223C487.316 47.8223 489.666 45.5408 491.958 44.1778C494.25 42.8149 496.336 42.1334 498.216 42.1334C499.92 42.1334 501.213 42.6371 502.094 43.6445C503.035 44.5926 503.505 46.0149 503.505 47.9111C503.505 49.0371 503.181 51.1704 502.535 54.3112H503.328Z" fill="#FF5151"/>
</svg>
